<?xml version="1.0" standalone="no"?>
<!DOCTYPE svg PUBLIC "-//W3C//DTD SVG 20010904//EN"
 "http://www.w3.org/TR/2001/REC-SVG-20010904/DTD/svg10.dtd">
<svg version="1.0" xmlns="http://www.w3.org/2000/svg"
 width="696.000000pt" height="696.000000pt" viewBox="0 0 696.000000 696.000000"
 preserveAspectRatio="xMidYMid meet">
<metadata>
Created by potrace 1.11, written by Peter Selinger 2001-2013
</metadata>
<g transform="translate(0.000000,696.000000) scale(0.100000,-0.100000)"
fill="#000000" stroke="none">
<path d="M930 6900 c0 -33 3 -60 8 -61 4 0 720 -2 1592 -3 872 -2 1594 -6
1606 -9 11 -3 45 -8 75 -11 30 -3 65 -8 79 -11 14 -3 40 -8 59 -11 38 -6 49
-9 106 -24 22 -6 49 -12 60 -14 72 -14 193 -61 353 -137 498 -237 844 -687
992 -1289 28 -116 29 -119 36 -170 3 -25 8 -48 10 -52 2 -3 32 -6 67 -5 l62 2
-1 50 c-2 46 -4 82 -19 290 -3 39 -8 104 -11 145 -3 41 -7 98 -9 125 -2 28 -6
90 -9 139 -3 49 -8 116 -11 150 -7 90 -17 215 -20 266 -5 86 -16 235 -20 285
-3 28 -7 84 -10 125 -2 41 -7 111 -11 155 -3 44 -7 89 -8 100 -1 20 -9 20
-2488 22 l-2488 2 0 -59z"/>
<path d="M2145 6665 c-75 -35 -136 -100 -151 -162 -15 -59 -9 -157 13 -203
119 -258 509 -179 519 105 7 202 -201 345 -381 260z"/>
<path d="M2217 5069 c-63 -10 -107 -31 -151 -73 -175 -170 -59 -467 183 -469
156 -1 270 107 277 264 8 169 -141 303 -309 278z"/>
<path d="M4483 4867 c-3 -5 -7 -43 -8 -84 -4 -75 -11 -146 -20 -193 -3 -14 -7
-34 -9 -45 -27 -139 -97 -318 -171 -435 -70 -111 -188 -236 -296 -313 -116
-82 -308 -164 -454 -193 -11 -2 -31 -6 -45 -9 -14 -3 -50 -8 -80 -11 -30 -3
-68 -7 -85 -9 -16 -1 -374 -3 -795 -4 l-765 -1 0 -1413 c0 -776 -4 -1436 -8
-1465 -23 -169 -125 -333 -259 -418 -60 -38 -148 -84 -148 -78 0 4 -6 2 -12
-3 -34 -26 -222 -63 -343 -67 l-50 -2 -3 -62 -3 -62 1381 0 1380 0 0 60 c0 33
-3 60 -7 61 -5 0 -47 2 -95 4 -452 16 -708 159 -797 445 -35 112 -36 166 -36
1525 l1 1340 269 -1 c247 -1 326 -4 410 -20 116 -21 140 -27 153 -37 6 -5 12
-7 12 -3 0 8 101 -29 190 -71 303 -141 540 -425 634 -759 14 -49 27 -102 30
-119 2 -16 8 -50 12 -75 4 -25 8 -74 10 -110 1 -36 3 -71 3 -77 1 -9 23 -13
76 -13 l75 0 0 1360 c0 748 -3 1360 -7 1361 -44 5 -136 3 -140 -4z"/>
<path d="M2182 4253 c-60 -17 -83 -32 -129 -81 -160 -175 -35 -456 203 -455
197 1 326 200 248 381 -56 128 -191 193 -322 155z"/>
</g>
</svg>
