<?xml version="1.0" encoding="utf-8"?>
<!-- Generator: Adobe Illustrator 22.1.0, SVG Export Plug-In . SVG Version: 6.00 Build 0)  -->
<svg version="1.1" id="Ebene_1" xmlns="http://www.w3.org/2000/svg" xmlns:xlink="http://www.w3.org/1999/xlink" x="0px" y="0px"
	 viewBox="0 0 36.9 36.9" style="enable-background:new 0 0 36.9 36.9;" xml:space="preserve">
<path fill="currentColor" d="M19.4,18.4l10-10c0.3-0.3,0.3-0.7,0-1c-0.3-0.3-0.7-0.3-1,0l-10,10l-10-10c-0.3-0.3-0.7-0.3-1,0
	c-0.3,0.3-0.3,0.7,0,1l10,10l-10,10c-0.3,0.3-0.3,0.7,0,1c0.1,0.1,0.3,0.2,0.5,0.2s0.4-0.1,0.5-0.2l10-10l10,10
	c0.1,0.1,0.3,0.2,0.5,0.2s0.4-0.1,0.5-0.2c0.3-0.3,0.3-0.7,0-1L19.4,18.4z"/>
</svg>
