<?xml version="1.0" encoding="UTF-8" standalone="no"?>
<!-- Generator: Adobe Illustrator 22.1.0, SVG Export Plug-In . SVG Version: 6.00 Build 0)  -->

<svg
   xmlns:dc="http://purl.org/dc/elements/1.1/"
   xmlns:cc="http://creativecommons.org/ns#"
   xmlns:rdf="http://www.w3.org/1999/02/22-rdf-syntax-ns#"
   xmlns:svg="http://www.w3.org/2000/svg"
   xmlns="http://www.w3.org/2000/svg"
   xmlns:sodipodi="http://sodipodi.sourceforge.net/DTD/sodipodi-0.dtd"
   xmlns:inkscape="http://www.inkscape.org/namespaces/inkscape"
   version="1.1"
   id="Ebene_1"
   x="0px"
   y="0px"
   viewBox="0 0 36 36"
   style="enable-background:new 0 0 36 36;"
   xml:space="preserve"
   sodipodi:docname="iconset-glass.svg"
   inkscape:version="0.92.3 (unknown)"><metadata
   id="metadata9"><rdf:RDF><cc:Work
       rdf:about=""><dc:format>image/svg+xml</dc:format><dc:type
         rdf:resource="http://purl.org/dc/dcmitype/StillImage" /></cc:Work></rdf:RDF></metadata><defs
   id="defs7" /><sodipodi:namedview
   pagecolor="#ffffff"
   bordercolor="#666666"
   borderopacity="1"
   objecttolerance="10"
   gridtolerance="10"
   guidetolerance="10"
   inkscape:pageopacity="0"
   inkscape:pageshadow="2"
   inkscape:window-width="1680"
   inkscape:window-height="986"
   id="namedview5"
   showgrid="false"
   inkscape:zoom="4.6354778"
   inkscape:cx="29.910445"
   inkscape:cy="-6.3989429"
   inkscape:window-x="0"
   inkscape:window-y="60"
   inkscape:window-maximized="1"
   inkscape:current-layer="g822" />

<path
   id="path819"
   d="m 66.288223,12.3 c -1.3,-3.8 -5.7,-5.8 -9.8,-4.5 -2,0.7 -3.6,2.1 -4.5,3.9 -0.8,1.7 -0.9,3.6 -0.3,5.4 1.1,3 4.1,4.9 7.3,4.9 0.5,0 1.1,-0.1 1.6,-0.2 l 2.6,7.1 c 0.1,0.3 0.4,0.5 0.7,0.5 0.1,0 0.2,0 0.2,0 0.4,-0.1 0.6,-0.5 0.4,-0.9 l -2.6,-7 c 1.8,-0.7 3.2,-2 4.1,-3.8 0.8,-1.7 0.9,-3.6 0.3,-5.4 z m -1.6,4.8 c -0.7,1.5 -2,2.6 -3.6,3.2 -0.1,0 -0.2,0.1 -0.3,0.1 h -0.1 c -3.2,0.9 -6.6,-0.8 -7.7,-3.8 -0.5,-1.4 -0.4,-2.9 0.2,-4.3 0.7,-1.5 2,-2.6 3.6,-3.2 0.7,-0.2 1.4,-0.3 2.1,-0.3 2.7,0 5.1,1.5 6,4 0.6,1.4 0.5,2.9 -0.2,4.3 z"
   inkscape:connector-curvature="0"
   style="fill:currentColor" /><g
   id="g827"
   transform="translate(100.19217,-0.95734458)"><circle
     r="6.3639612"
     cy="14.858706"
     cx="-20.062656"
     id="path821"
     style="opacity:1;fill:none;fill-opacity:1;stroke:#000000;stroke-width:3;stroke-linecap:round;stroke-linejoin:round;stroke-miterlimit:4;stroke-dasharray:none;stroke-dashoffset:0;stroke-opacity:1;paint-order:fill markers stroke" /><path
     inkscape:connector-curvature="0"
     id="path823"
     d="M -17.828403,21.242598 -14.683766,29.4"
     style="fill:none;fill-rule:evenodd;stroke:#000000;stroke-width:3;stroke-linecap:round;stroke-linejoin:miter;stroke-miterlimit:4;stroke-dasharray:none;stroke-opacity:1" /></g><g
   transform="translate(38.062656,-0.95734458)"
   id="g822"><circle
     style="opacity:1;fill:none;fill-opacity:1;stroke:#000000;stroke-width:2;stroke-linecap:round;stroke-linejoin:round;stroke-miterlimit:4;stroke-dasharray:none;stroke-dashoffset:0;stroke-opacity:1;paint-order:fill markers stroke"
     id="circle817"
     cx="-20.062656"
     cy="14.858706"
     r="6.3639612" /><path
     style="fill:none;fill-rule:evenodd;stroke:#000000;stroke-width:2;stroke-linecap:round;stroke-linejoin:miter;stroke-miterlimit:4;stroke-dasharray:none;stroke-opacity:1"
     d="M -17.828403,21.242598 -14.683766,29.4"
     id="path820"
     inkscape:connector-curvature="0" /></g></svg>