<svg version="1.1" viewBox="0 0 128.07 174.32" xmlns="http://www.w3.org/2000/svg">
  <defs>
    <clipPath id="clipPath18">
      <path d="M 0,841.89 H 595.28 V 0 H 0 Z"/>
    </clipPath>
  </defs>
  <g transform="matrix(1.3333 0 0 -1.3333 -350.91 703.22)">
    <g clip-path="url(#clipPath18)">
      <g transform="translate(288.09 522.37)">
        <path d="m0 0c-2.853 0-5.165-2.313-5.165-5.165s2.312-5.165 5.165-5.165 5.165 2.313 5.165 5.165-2.312 5.165-5.165 5.165m0-30.381c-2.853 0-5.165-2.312-5.165-5.165 0-2.852 2.312-5.164 5.165-5.164s5.165 2.312 5.165 5.164c0 2.853-2.312 5.165-5.165 5.165m0-15.19c-2.853 0-5.165-2.313-5.165-5.165 0-2.853 2.312-5.165 5.165-5.165s5.165 2.312 5.165 5.165c0 2.852-2.312 5.165-5.165 5.165m68.633 50.613h-93.547v-2.282h49.461v-0.042h6.707c15.202 0 33.624-8.049 37.379-32.551h2.505zm-51.151-63.67h-8.048v2e-3h-18.78v-51.512c0-10.731-9.121-13.235-15.56-13.235v-2.324h51.867v2.324c-8.048 0-17.527 1.432-17.527 13.057v49.184h7.869c15.203 0 24.503-10.732 24.503-24.145h2.861v51.152h-2.861c0-12.878-7.512-24.503-24.324-24.503" fill="#231f20"/>
      </g>
    </g>
  </g>
</svg>
