<?xml version="1.0" encoding="utf-8"?>
<!-- Generator: Adobe Illustrator 22.1.0, SVG Export Plug-In . SVG Version: 6.00 Build 0)  -->
<svg version="1.1" id="Ebene_1" xmlns="http://www.w3.org/2000/svg" xmlns:xlink="http://www.w3.org/1999/xlink" x="0px" y="0px"
	 viewBox="0 0 36.9 36.9" style="enable-background:new 0 0 36.9 36.9;" xml:space="preserve">
<style type="text/css">
	.st0{fill:#020203;}
</style>
<path class="st0" d="M25.7,12.3c-1.3-3.8-5.7-5.8-9.8-4.5c-2,0.7-3.6,2.1-4.5,3.9c-0.8,1.7-0.9,3.6-0.3,5.4c1.1,3,4.1,4.9,7.3,4.9
	c0.5,0,1.1-0.1,1.6-0.2l2.6,7.1c0.1,0.3,0.4,0.5,0.7,0.5c0.1,0,0.2,0,0.2,0c0.4-0.1,0.6-0.5,0.4-0.9l-2.6-7c1.8-0.7,3.2-2,4.1-3.8
	C26.2,16,26.3,14.1,25.7,12.3z M24.1,17.1c-0.7,1.5-2,2.6-3.6,3.2c-0.1,0-0.2,0.1-0.3,0.1l-0.1,0c-3.2,0.9-6.6-0.8-7.7-3.8
	c-0.5-1.4-0.4-2.9,0.2-4.3c0.7-1.5,2-2.6,3.6-3.2c0.7-0.2,1.4-0.3,2.1-0.3c2.7,0,5.1,1.5,6,4C24.9,14.2,24.8,15.7,24.1,17.1z"/>
</svg>
