<?xml version="1.0" encoding="utf-8"?>
<!-- Generator: Adobe Illustrator 22.1.0, SVG Export Plug-In . SVG Version: 6.00 Build 0)  -->
<svg version="1.1" id="Ebene_1" xmlns="http://www.w3.org/2000/svg" xmlns:xlink="http://www.w3.org/1999/xlink" x="0px" y="0px"
	 viewBox="0 0 36.9 36.9" style="enable-background:new 0 0 36.9 36.9;" xml:space="preserve">
<path fill="currentColor" d="M35.7,21.4c-0.1-0.1-0.9-0.9-2.3-1.9l1.8-5.2c0.1-0.4-0.1-0.8-0.4-0.9c-0.4-0.1-0.8,0.1-0.9,0.4l-1.7,4.8
	c-1.6-1.1-3.6-2.3-6-3.2l1.4-6.7c0.1-0.4-0.2-0.8-0.5-0.8c-0.4-0.1-0.8,0.2-0.8,0.5l-1.4,6.5c-1.8-0.6-3.7-0.9-5.8-1l-1.7-6.5
	c-0.1-0.4-0.5-0.6-0.9-0.5c-0.4,0.1-0.6,0.5-0.5,0.9l1.6,6.2c-2.3,0.1-4.4,0.6-6.3,1.3L8.4,8.9C8.2,8.6,7.8,8.4,7.5,8.6
	C7.1,8.7,6.9,9.1,7.1,9.5L10,16c-1.5,0.7-2.9,1.4-4.1,2.2l-4-4.6c-0.3-0.3-0.7-0.3-1-0.1c-0.3,0.3-0.3,0.7-0.1,1l3.9,4.4
	c-1.9,1.3-3,2.4-3.1,2.5L1,22l0.5,0.5c0.3,0.3,7.7,7.4,17.1,7.4c9.3,0,16.8-7.1,17.1-7.4l0.5-0.5L35.7,21.4z M16.1,15.9
	c-0.8,0.3-1.5,0.8-2.2,1.4c-0.6,0.6-1.1,1.3-1.4,2.2c-0.3,0.8-0.5,1.7-0.5,2.6c0,0.9,0.2,1.7,0.5,2.6c0.3,0.8,0.8,1.5,1.4,2.2
	c0.6,0.6,1.3,1.1,2.1,1.4C9.8,27.3,4.8,23.4,3.1,22c0.6-0.5,1.7-1.4,3.1-2.3c0,0,0,0,0.1,0c0,0,0,0,0,0c2.7-1.8,6.6-3.7,11-4.1
	C16.9,15.6,16.5,15.7,16.1,15.9z M21.3,28.2c0.8-0.3,1.5-0.8,2.1-1.4c0.6-0.6,1.1-1.3,1.4-2.2c0.3-0.8,0.5-1.7,0.5-2.6
	c0-0.9-0.2-1.7-0.5-2.6c-0.3-0.8-0.8-1.5-1.4-2.2c-0.6-0.6-1.3-1.1-2.2-1.4c-0.4-0.2-0.8-0.3-1.2-0.4c6.7,0.5,12.4,4.9,14.1,6.4
	C32.5,23.4,27.4,27.3,21.3,28.2z"/>
<path fill="white" d="M19.7,19.7c-0.4,0.4-0.8,0.5-1.3,0.5c-0.5,0-1-0.2-1.3-0.5c-0.4-0.4-0.5-0.8-0.5-1.3c0-0.5,0.2-1,0.5-1.3
	c0.4-0.4,0.8-0.5,1.3-0.5c0.5,0,1,0.2,1.3,0.5c0.4,0.4,0.5,0.8,0.5,1.3C20.3,18.9,20.1,19.4,19.7,19.7z"/>
</svg>
