<?xml version="1.0" encoding="UTF-8" standalone="no"?>
<!-- Generator: Adobe Illustrator 22.1.0, SVG Export Plug-In . SVG Version: 6.00 Build 0)  -->

<svg
   xmlns:dc="http://purl.org/dc/elements/1.1/"
   xmlns:cc="http://creativecommons.org/ns#"
   xmlns:rdf="http://www.w3.org/1999/02/22-rdf-syntax-ns#"
   xmlns:svg="http://www.w3.org/2000/svg"
   xmlns="http://www.w3.org/2000/svg"
   xmlns:sodipodi="http://sodipodi.sourceforge.net/DTD/sodipodi-0.dtd"
   xmlns:inkscape="http://www.inkscape.org/namespaces/inkscape"
   version="1.1"
   id="Ebene_1"
   x="0px"
   y="0px"
   viewBox="0 0 36 36"
   style="enable-background:new 0 0 36 36;"
   xml:space="preserve"
   sodipodi:docname="iconset-menu.svg"
   inkscape:version="0.92.3 (unknown)"><metadata
   id="metadata15"><rdf:RDF><cc:Work
       rdf:about=""><dc:format>image/svg+xml</dc:format><dc:type
         rdf:resource="http://purl.org/dc/dcmitype/StillImage" /></cc:Work></rdf:RDF></metadata><defs
   id="defs13" /><sodipodi:namedview
   pagecolor="#ffffff"
   bordercolor="#666666"
   borderopacity="1"
   objecttolerance="10"
   gridtolerance="10"
   guidetolerance="10"
   inkscape:pageopacity="0"
   inkscape:pageshadow="2"
   inkscape:window-width="1680"
   inkscape:window-height="986"
   id="namedview11"
   showgrid="false"
   inkscape:zoom="4.6354778"
   inkscape:cx="-9.7086106"
   inkscape:cy="9.5516296"
   inkscape:window-x="0"
   inkscape:window-y="60"
   inkscape:window-maximized="1"
   inkscape:current-layer="Ebene_1" />
<g
   id="g8"
   transform="translate(-24.808662)">
	<path
   d="m 75.383513,10.22702 c 1.730769,0 3,-1.3846155 3,-3.0000001 0,-1.7307691 -1.384616,-2.9999999 -3,-2.9999999 -1.730769,0 -3,1.3846154 -3,2.9999999 0,1.7307692 1.384615,3.0000001 3,3.0000001 z"
   id="path2"
   inkscape:connector-curvature="0"
   style="fill:currentColor;stroke-width:1" />
	<path
   d="m 75.383513,19.547181 c -1.730769,0 -3,1.384616 -3,3 0,1.615384 1.384616,3 3,3 1.73077,0 3,-1.384616 3,-3 0,-1.615384 -1.26923,-3 -3,-3 z"
   id="path4"
   inkscape:connector-curvature="0"
   style="fill:currentColor;stroke-width:1" />
	<path
   d="m 75.380155,27.247182 c -1.728832,0 -2.996642,1.384616 -2.996642,3 0,1.730769 1.383066,3 2.996642,3 1.728832,0 2.996642,-1.384616 2.996642,-3 0.115257,-1.615384 -1.26781,-3 -2.996642,-3 z"
   id="path6"
   inkscape:connector-curvature="0"
   style="fill:currentColor;stroke-width:1" />
</g>
<g
   id="g831"
   transform="translate(44.694915)">
	<path
   id="path825"
   d="M 18.4,9.4 C 19.9,9.4 21,8.2 21,6.8 21,5.3 19.8,4.2 18.4,4.2 c -1.5,0 -2.6,1.2 -2.6,2.6 0,1.5 1.2,2.6 2.6,2.6 z"
   inkscape:connector-curvature="0"
   style="fill:currentColor" />
	<path
   id="path827"
   d="m 18.4,19.7 c -1.5,0 -2.6,1.2 -2.6,2.6 0,1.4 1.2,2.6 2.6,2.6 1.5,0 2.6,-1.2 2.6,-2.6 0,-1.4 -1.1,-2.6 -2.6,-2.6 z"
   inkscape:connector-curvature="0"
   style="fill:currentColor" />
	<path
   id="path829"
   d="m 18.4,27.4 c -1.5,0 -2.6,1.2 -2.6,2.6 0,1.5 1.2,2.6 2.6,2.6 1.5,0 2.6,-1.2 2.6,-2.6 0.1,-1.4 -1.1,-2.6 -2.6,-2.6 z"
   inkscape:connector-curvature="0"
   style="fill:currentColor" />
</g><path
   style="fill:none;fill-rule:evenodd;stroke:#000000;stroke-width:2;stroke-linecap:round;stroke-linejoin:miter;stroke-miterlimit:4;stroke-dasharray:none;stroke-opacity:1"
   d="M 9.2402127,9.2497909 H 26.759787"
   id="path822"
   inkscape:connector-curvature="0" /><path
   inkscape:connector-curvature="0"
   id="path824"
   d="M 9.240213,18.418209 H 26.759787"
   style="fill:none;fill-rule:evenodd;stroke:#000000;stroke-width:2;stroke-linecap:round;stroke-linejoin:miter;stroke-miterlimit:4;stroke-dasharray:none;stroke-opacity:1" /><path
   style="fill:none;fill-rule:evenodd;stroke:#000000;stroke-width:2;stroke-linecap:round;stroke-linejoin:miter;stroke-miterlimit:4;stroke-dasharray:none;stroke-opacity:1"
   d="M 9.2402127,27.586628 H 26.759787"
   id="path826"
   inkscape:connector-curvature="0" /></svg>