<?xml version="1.0" encoding="utf-8"?>
<!-- Generator: Adobe Illustrator 21.0.0, SVG Export Plug-In . SVG Version: 6.00 Build 0)  -->
<svg version="1.1" id="Ebene_1" xmlns="http://www.w3.org/2000/svg" xmlns:xlink="http://www.w3.org/1999/xlink" x="0px" y="0px"
	 viewBox="0 0 320 15.1" style="enable-background:new 0 0 320 15.1;" xml:space="preserve">
<style type="text/css">
	.st0{fill:#1B1B19;}
</style>
<g>
	<g>
		<path class="st0" d="M141.5,0c-4.4,0-7.6,3.6-7.6,7.5c0,4,3.2,7.5,7.6,7.5c4.3,0,7.6-3.5,7.6-7.5C149.1,3.4,145.8,0,141.5,0
			 M141.5,1.9c3.6,0,5.4,3.1,5.4,5.7c0,1.1-0.4,2.4-1.2,3.4l-1.3-1.3c0.9-0.4,1.2-1.4,1.2-2.2c0-1.5-1.1-2.5-2.5-2.5
			c-2,0-2.3,1.5-2.7,2.5c-0.1,0.4-0.3,1.1-1.1,1.1c-0.5,0-1.1-0.4-1.1-1.1c0-0.5,0.3-1.2,1.2-1.2V5.2c-1.4,0-2.3,1-2.3,2.4
			c0,1.6,1.3,2.3,2.2,2.3c0.6,0,1.2-0.2,1.5-0.6c0.3-0.3,0.4-0.5,0.6-0.9l3.5,3.5c-0.9,0.8-2,1.3-3.6,1.3c-3.7,0-5.4-3.2-5.4-5.6
			C136.1,5.2,137.7,1.9,141.5,1.9 M142,7.3c0.2-0.5,0.5-1.1,1.2-1.1c0.9,0,1.4,0.6,1.4,1.3c0,0.9-0.6,1.2-1.1,1.3L142,7.3z"/>
		<path class="st0" d="M0,10.6c0,2.5,2,4.2,4.4,4.2c2.3,0,4.3-1.8,4.3-4.1c0-1.1-0.5-2.2-1.3-3C6.5,7,5.6,6.8,4.6,6.5
			C3.3,6.2,1.8,5.8,1.8,4.1c0-1.3,1-2.5,2.4-2.5c1.4,0,2.5,1,2.6,2.5h1.5c0-2.2-1.7-3.8-3.9-3.8c-2.2,0-4,1.5-4,3.8
			c0,1,0.4,2,1.2,2.6c0.7,0.6,1.6,0.8,2.5,1.1C4.9,8,5.6,8.1,6.3,8.7c0.6,0.5,1,1.2,1,2c0,1.6-1.3,2.8-2.9,2.8
			c-1.6,0-2.8-1.3-2.8-2.8H0z M23.5,14.6h1.4V1.8h3.2V0.5h-7.8v1.3h3.2V14.6z M40.7,0.5V9c0,1.5,0.2,2.9,1.1,4.1
			c0.9,1.1,2.3,1.7,3.7,1.7c1.4,0,2.9-0.6,3.7-1.8c0.9-1.2,1-2.6,1-4V0.5h-1.4V9c0,1.1-0.1,2.2-0.8,3.1c-0.6,0.8-1.6,1.3-2.6,1.3
			c-1.1,0-2.2-0.5-2.7-1.5c-0.6-0.9-0.6-1.9-0.6-3V0.5H40.7z M64.3,14.6h3.9c2.2,0,4-0.3,5.7-1.8c1.4-1.3,2.3-3.2,2.3-5.2
			c0-2-1-4.1-2.6-5.4C72,0.8,70.1,0.5,68,0.5h-3.8L64.3,14.6L64.3,14.6z M65.7,13.3V1.8h1.8c1.9,0,3.5,0.1,5.1,1.3
			c1.4,1.1,2.2,2.6,2.2,4.5c0,1.8-0.8,3.4-2.2,4.5c-1.6,1.2-3.2,1.3-5.1,1.3H65.7z M89.5,14.6h1.4V0.5h-1.4V14.6z M111.7,0.3
			c-4.1,0-7.4,3.2-7.4,7.3c0,4,3.5,7.2,7.4,7.2c4.1,0,7.4-3.2,7.4-7.3C119.1,3.4,115.6,0.3,111.7,0.3 M111.7,1.6c3.2,0,6,2.6,6,5.9
			c0,3.3-2.7,6-6,6c-3.2,0-6-2.6-6-5.9C105.6,4.3,108.4,1.6,111.7,1.6L111.7,1.6z M167.5,14.6V9.2h0.5c1.4,0,3,0.1,4.2-0.9
			c1.1-0.9,1.7-2.2,1.7-3.6c0-1.4-0.7-2.8-1.9-3.5c-1.2-0.8-2.5-0.7-3.8-0.7h-3.3v14.1H167.5z M167.5,6.7V3h0.5c0.6,0,1.4,0,1.9,0.1
			c0.8,0.2,1.4,0.8,1.4,1.7c0,0.8-0.5,1.5-1.3,1.7c-0.6,0.2-1.4,0.2-2,0.2H167.5z M186.6,14.6h7.6V12h-5V8.8h4.7V6.3h-4.7V3h5V0.5
			h-7.6V14.6z M206.7,12.3v2.2h8.8V12h-5.7l5.3-9.2V0.5H207V3h5L206.7,12.3z M227.2,12.3v2.2h8.8V12h-5.7l5.3-9.2V0.5h-8.1V3h5
			L227.2,12.3z M248.7,14.6h7.6V12h-5V8.8h4.7V6.3h-4.7V3h5V0.5h-7.6V14.6z M271.1,14.6h2.6V3h2.6V0.5h-7.8V3h2.6L271.1,14.6
			L271.1,14.6z M290.2,14.6h2.6V3h2.6V0.5h-7.8V3h2.6L290.2,14.6L290.2,14.6z M306.2,14.6h2.9l1.6-3.6h5l1.5,3.6h2.9l-5.9-14.1h-2
			L306.2,14.6z M311.6,8.4l1.5-4.3l1.5,4.3H311.6z"/>
	</g>
</g>
</svg>
