<?xml version="1.0" encoding="UTF-8" standalone="no"?>
<svg
   xmlns:dc="http://purl.org/dc/elements/1.1/"
   xmlns:cc="http://creativecommons.org/ns#"
   xmlns:rdf="http://www.w3.org/1999/02/22-rdf-syntax-ns#"
   xmlns:svg="http://www.w3.org/2000/svg"
   xmlns="http://www.w3.org/2000/svg"
   xmlns:sodipodi="http://sodipodi.sourceforge.net/DTD/sodipodi-0.dtd"
   xmlns:inkscape="http://www.inkscape.org/namespaces/inkscape"
   height="16"
   width="320"
   xml:space="preserve"
   viewBox="0 0 320 16"
   y="0px"
   x="0px"
   id="Ebene_1"
   version="1.1"
   sodipodi:docname="logo-invert.svg"
   inkscape:version="0.92.0 unknown"><sodipodi:namedview
     pagecolor="#000000"
     bordercolor="#666666"
     borderopacity="1"
     objecttolerance="10"
     gridtolerance="10"
     guidetolerance="10"
     inkscape:pageopacity="0"
     inkscape:pageshadow="2"
     inkscape:window-width="1920"
     inkscape:window-height="1016"
     id="namedview10"
     showgrid="false"
     inkscape:zoom="2.5375"
     inkscape:cx="145.24401"
     inkscape:cy="-37.19627"
     inkscape:window-x="0"
     inkscape:window-y="27"
     inkscape:window-maximized="1"
     inkscape:current-layer="Ebene_1" /><metadata
     id="metadata17"><rdf:RDF><cc:Work
         rdf:about=""><dc:format>image/svg+xml</dc:format><dc:type
           rdf:resource="http://purl.org/dc/dcmitype/StillImage" /><dc:title></dc:title></cc:Work></rdf:RDF></metadata><defs
     id="defs15" /><style
     id="style2"
     type="text/css">
	.st0{fill:#1B1B19;}
</style><g
     transform="translate(-0.05,0.5)"
     id="g10"
     style="fill:#ffffff"><g
       id="g8"
       style="fill:#ffffff"><path
         style="fill:#ffffff"
         id="path4"
         d="m 141.5,0 c -4.4,0 -7.6,3.6 -7.6,7.5 0,4 3.2,7.5 7.6,7.5 4.3,0 7.6,-3.5 7.6,-7.5 0,-4.1 -3.3,-7.5 -7.6,-7.5 m 0,1.9 c 3.6,0 5.4,3.1 5.4,5.7 0,1.1 -0.4,2.4 -1.2,3.4 l -1.3,-1.3 c 0.9,-0.4 1.2,-1.4 1.2,-2.2 0,-1.5 -1.1,-2.5 -2.5,-2.5 -2,0 -2.3,1.5 -2.7,2.5 -0.1,0.4 -0.3,1.1 -1.1,1.1 -0.5,0 -1.1,-0.4 -1.1,-1.1 0,-0.5 0.3,-1.2 1.2,-1.2 V 5.2 c -1.4,0 -2.3,1 -2.3,2.4 0,1.6 1.3,2.3 2.2,2.3 0.6,0 1.2,-0.2 1.5,-0.6 0.3,-0.3 0.4,-0.5 0.6,-0.9 l 3.5,3.5 c -0.9,0.8 -2,1.3 -3.6,1.3 -3.7,0 -5.4,-3.2 -5.4,-5.6 0.2,-2.4 1.8,-5.7 5.6,-5.7 m 0.5,5.4 c 0.2,-0.5 0.5,-1.1 1.2,-1.1 0.9,0 1.4,0.6 1.4,1.3 0,0.9 -0.6,1.2 -1.1,1.3 z"
         class="st0" /><path
         style="fill:#ffffff"
         id="path6"
         d="m 0,10.6 c 0,2.5 2,4.2 4.4,4.2 2.3,0 4.3,-1.8 4.3,-4.1 C 8.7,9.6 8.2,8.5 7.4,7.7 6.5,7 5.6,6.8 4.6,6.5 3.3,6.2 1.8,5.8 1.8,4.1 c 0,-1.3 1,-2.5 2.4,-2.5 1.4,0 2.5,1 2.6,2.5 H 8.3 C 8.3,1.9 6.6,0.3 4.4,0.3 c -2.2,0 -4,1.5 -4,3.8 0,1 0.4,2 1.2,2.6 0.7,0.6 1.6,0.8 2.5,1.1 0.8,0.2 1.5,0.3 2.2,0.9 0.6,0.5 1,1.2 1,2 0,1.6 -1.3,2.8 -2.9,2.8 -1.6,0 -2.8,-1.3 -2.8,-2.8 H 0 Z m 23.5,4 h 1.4 V 1.8 h 3.2 V 0.5 h -7.8 v 1.3 h 3.2 z M 40.7,0.5 V 9 c 0,1.5 0.2,2.9 1.1,4.1 0.9,1.1 2.3,1.7 3.7,1.7 1.4,0 2.9,-0.6 3.7,-1.8 0.9,-1.2 1,-2.6 1,-4 V 0.5 H 48.8 V 9 c 0,1.1 -0.1,2.2 -0.8,3.1 -0.6,0.8 -1.6,1.3 -2.6,1.3 -1.1,0 -2.2,-0.5 -2.7,-1.5 C 42.1,11 42.1,10 42.1,8.9 V 0.5 Z m 23.6,14.1 h 3.9 c 2.2,0 4,-0.3 5.7,-1.8 1.4,-1.3 2.3,-3.2 2.3,-5.2 0,-2 -1,-4.1 -2.6,-5.4 C 72,0.8 70.1,0.5 68,0.5 h -3.8 z m 1.4,-1.3 V 1.8 h 1.8 c 1.9,0 3.5,0.1 5.1,1.3 1.4,1.1 2.2,2.6 2.2,4.5 0,1.8 -0.8,3.4 -2.2,4.5 -1.6,1.2 -3.2,1.3 -5.1,1.3 h -1.8 z m 23.8,1.3 h 1.4 V 0.5 H 89.5 Z M 111.7,0.3 c -4.1,0 -7.4,3.2 -7.4,7.3 0,4 3.5,7.2 7.4,7.2 4.1,0 7.4,-3.2 7.4,-7.3 0,-4.1 -3.5,-7.2 -7.4,-7.2 m 0,1.3 c 3.2,0 6,2.6 6,5.9 0,3.3 -2.7,6 -6,6 -3.2,0 -6,-2.6 -6,-5.9 -0.1,-3.3 2.7,-6 6,-6 z m 55.8,13 V 9.2 h 0.5 c 1.4,0 3,0.1 4.2,-0.9 1.1,-0.9 1.7,-2.2 1.7,-3.6 0,-1.4 -0.7,-2.8 -1.9,-3.5 -1.2,-0.8 -2.5,-0.7 -3.8,-0.7 h -3.3 v 14.1 z m 0,-7.9 V 3 h 0.5 c 0.6,0 1.4,0 1.9,0.1 0.8,0.2 1.4,0.8 1.4,1.7 0,0.8 -0.5,1.5 -1.3,1.7 -0.6,0.2 -1.4,0.2 -2,0.2 z m 19.1,7.9 h 7.6 V 12 h -5 V 8.8 h 4.7 V 6.3 h -4.7 V 3 h 5 V 0.5 h -7.6 z m 20.1,-2.3 v 2.2 h 8.8 V 12 h -5.7 l 5.3,-9.2 V 0.5 H 207 V 3 h 5 z m 20.5,0 v 2.2 H 236 V 12 h -5.7 l 5.3,-9.2 V 0.5 h -8.1 V 3 h 5 z m 21.5,2.3 h 7.6 V 12 h -5 V 8.8 H 256 V 6.3 h -4.7 V 3 h 5 V 0.5 h -7.6 z m 22.4,0 h 2.6 V 3 h 2.6 V 0.5 h -7.8 V 3 h 2.6 z m 19.1,0 h 2.6 V 3 h 2.6 V 0.5 h -7.8 V 3 h 2.6 z m 16,0 h 2.9 l 1.6,-3.6 h 5 l 1.5,3.6 h 2.9 L 314.2,0.5 h -2 z m 5.4,-6.2 1.5,-4.3 1.5,4.3 z"
         class="st0" /></g></g></svg>