<?xml version="1.0" encoding="UTF-8" standalone="no"?>
<!-- Generator: Adobe Illustrator 21.1.0, SVG Export Plug-In . SVG Version: 6.00 Build 0)  -->

<svg
   xmlns:dc="http://purl.org/dc/elements/1.1/"
   xmlns:cc="http://creativecommons.org/ns#"
   xmlns:rdf="http://www.w3.org/1999/02/22-rdf-syntax-ns#"
   xmlns:svg="http://www.w3.org/2000/svg"
   xmlns="http://www.w3.org/2000/svg"
   xmlns:sodipodi="http://sodipodi.sourceforge.net/DTD/sodipodi-0.dtd"
   xmlns:inkscape="http://www.inkscape.org/namespaces/inkscape"
   version="1.1"
   id="Ebene_1"
   x="0px"
   y="0px"
   viewBox="0 0 108 8.0000031"
   xml:space="preserve"
   sodipodi:docname="art+code_logo-04.svg"
   width="108"
   height="8.0000029"
   inkscape:version="0.92+devel unknown"><metadata
     id="metadata19"><rdf:RDF><cc:Work
         rdf:about=""><dc:format>image/svg+xml</dc:format><dc:type
           rdf:resource="http://purl.org/dc/dcmitype/StillImage" /><dc:title></dc:title></cc:Work></rdf:RDF></metadata><defs
     id="defs17" /><sodipodi:namedview
     pagecolor="#ffffff"
     bordercolor="#666666"
     inkscape:document-rotation="0"
     borderopacity="1"
     objecttolerance="10"
     gridtolerance="10"
     guidetolerance="10"
     inkscape:pageopacity="0"
     inkscape:pageshadow="2"
     inkscape:window-width="1680"
     inkscape:window-height="986"
     id="namedview15"
     showgrid="false"
     fit-margin-top="0"
     fit-margin-left="0"
     fit-margin-right="0"
     fit-margin-bottom="0"
     inkscape:zoom="7.3396869"
     inkscape:cx="48.563296"
     inkscape:cy="-9.578545"
     inkscape:window-x="0"
     inkscape:window-y="27"
     inkscape:window-maximized="1"
     inkscape:current-layer="Ebene_1" /><g
     id="g12"
     transform="matrix(0.17447496,0,0,0.17391304,0,0.03478261)"><g
       id="g8"><path
         d="m 591,39 c -2.3,-1.9 -3.8,-4.2 -4.7,-6.9 -0.9,-2.7 -1.3,-5.8 -1.3,-9.2 0,-2.3 0.3,-4.6 0.8,-6.7 0.5,-2.1 1.3,-4.2 2.4,-6 1.1,-1.9 2.6,-3.4 4.6,-4.5 2,-1.1 4.2,-1.7 6.8,-1.7 3.5,0 6.3,0.9 8.6,2.8 2.3,1.9 3.8,4.2 4.7,6.9 0.9,2.7 1.3,5.8 1.3,9.2 0,2.3 -0.3,4.6 -0.8,6.7 -0.5,2.2 -1.3,4.2 -2.4,6 -1.1,1.9 -2.6,3.4 -4.6,4.5 -2,1.1 -4.2,1.7 -6.8,1.7 -3.5,0 -6.4,-0.9 -8.6,-2.8 m 23.8,-0.6 c 1.5,-2.3 2.5,-4.7 3.2,-7.3 0.7,-2.6 1,-5.3 1,-8.3 0,-2.9 -0.3,-5.7 -1,-8.3 -0.7,-2.6 -1.8,-5 -3.2,-7.3 -1.5,-2.3 -3.5,-4 -6.1,-5.4 -2.6,-1.3 -5.7,-2 -9.2,-2 -3.5,0 -6.6,0.7 -9.2,2 -2.6,1.3 -4.6,3.1 -6.1,5.4 -1.5,2.3 -2.5,4.7 -3.2,7.3 -0.7,2.6 -1,5.3 -1,8.3 0,2.9 0.3,5.7 1,8.3 0.7,2.6 1.8,5 3.2,7.3 1.5,2.3 3.5,4 6.1,5.4 2.6,1.3 5.7,2 9.2,2 3.5,0 6.6,-0.7 9.2,-2 2.7,-1.3 4.7,-3.1 6.1,-5.4 M 569.1,0.8 h -4.7 V 45 h 4.7 z M 524.5,41 V 4.7 h 8.6 c 5.2,0 9.1,1.8 11.7,5.3 2.6,3.5 3.9,7.8 3.9,12.9 0,2.3 -0.3,4.5 -0.8,6.5 -0.5,2 -1.4,3.9 -2.6,5.8 -1.2,1.8 -2.9,3.2 -5.1,4.3 -2.2,1.1 -4.8,1.6 -7.9,1.6 h -7.8 z m -4.7,4 h 12.3 c 3.3,0 6.2,-0.4 8.8,-1.3 2.6,-0.9 4.6,-2.1 6.2,-3.5 1.6,-1.5 2.9,-3.2 3.9,-5.1 1,-2 1.8,-3.9 2.2,-5.9 0.4,-2 0.6,-4.1 0.6,-6.2 0,-2.9 -0.4,-5.6 -1.1,-8.1 -0.8,-2.5 -1.9,-4.9 -3.5,-7 C 547.6,5.8 545.4,4 542.5,2.8 539.6,1.5 536.3,0.9 532.4,0.9 H 519.9 V 45 Z M 507.1,28.6 V 0.8 h -4.7 v 27.8 c 0,8.8 -3.8,13.2 -11.5,13.2 -7.6,0 -11.5,-4.4 -11.5,-13.2 V 0.8 h -4.7 v 27.8 c 0,11.5 5.4,17.2 16.2,17.2 10.8,0 16.2,-5.7 16.2,-17.2 M 465.6,5 V 0.8 H 434.9 V 5 h 13 v 40 h 4.7 V 5 Z m -41.7,37.5 c 2.7,-2.2 4.1,-5.2 4.1,-9 0,-2 -0.4,-3.8 -1.2,-5.4 -0.8,-1.6 -1.9,-3 -3.3,-4.1 -1.4,-1.1 -2.8,-2.1 -4.3,-2.8 -1.4,-0.7 -3,-1.4 -4.9,-2.1 -1.7,-0.6 -3.1,-1.2 -4.1,-1.6 -1.1,-0.5 -2.2,-1.1 -3.3,-1.8 -1.1,-0.7 -2,-1.5 -2.6,-2.4 -0.6,-0.9 -0.8,-1.9 -0.8,-3 0,-1.9 0.8,-3.4 2.4,-4.6 1.6,-1.1 3.7,-1.7 6.5,-1.7 2.2,0 4.1,0.4 5.7,1.3 1.6,0.8 2.6,1.9 3.3,3.2 l 4.4,-1.4 C 425.1,5 423.6,3.3 421.3,2 419,0.7 416.1,0 412.7,0 c -4.2,0 -7.6,1 -10.1,3 -2.5,2 -3.8,4.4 -3.8,7.3 0,1.7 0.4,3.3 1.1,4.7 0.8,1.4 1.9,2.7 3.3,3.7 1.5,1 2.9,1.9 4.3,2.6 1.4,0.7 3.1,1.3 5,2 3.2,1.1 5.8,2.5 7.8,4.1 1.9,1.6 2.9,3.7 2.9,6.2 0,2.6 -0.9,4.6 -2.7,6 -1.8,1.4 -4.2,2.1 -7.3,2.1 -2.6,0 -4.9,-0.6 -6.9,-1.8 -2,-1.2 -3.5,-2.8 -4.5,-4.7 l -4.5,1.5 c 1,2.5 2.9,4.7 5.7,6.4 2.8,1.7 6.2,2.6 10,2.6 4.6,0.1 8.2,-1 10.9,-3.2"
         id="path2"
         inkscape:connector-curvature="0" /><path
         d="M 372.6,45 V 37.9 H 348.4 V 25.7 h 14 v -7.1 h -14 V 7.9 h 22.7 V 0.8 H 340.3 V 45 Z m -70.5,-7.1 v -30 h 8.1 c 4.2,0 7.4,1.5 9.5,4.4 2.2,2.9 3.2,6.5 3.2,10.6 0,1.9 -0.2,3.6 -0.7,5.3 -0.5,1.7 -1.2,3.3 -2.2,4.8 -1,1.5 -2.4,2.7 -4.3,3.6 -1.8,0.9 -3.9,1.3 -6.3,1.3 z M 294,45 h 14.3 c 3.3,0 6.3,-0.4 9,-1.3 2.7,-0.9 4.9,-2.1 6.6,-3.5 1.7,-1.5 3.1,-3.2 4.3,-5.1 1.1,-2 2,-4 2.4,-6 0.5,-2 0.7,-4.1 0.7,-6.2 0,-2.3 -0.3,-4.5 -0.8,-6.5 -0.5,-2.1 -1.3,-4.1 -2.5,-6 -1.1,-1.9 -2.6,-3.6 -4.3,-5 C 322,4 319.8,2.9 317.2,2 314.6,1.2 311.7,0.7 308.5,0.7 H 294 Z m -35.6,-7.9 c -1.6,-0.9 -2.9,-2.2 -3.8,-3.7 -0.9,-1.6 -1.6,-3.2 -2.1,-5 -0.4,-1.8 -0.7,-3.6 -0.7,-5.5 0,-2.5 0.4,-4.9 1.1,-7.1 0.7,-2.2 2.1,-4.2 4,-5.9 1.9,-1.7 4.3,-2.6 7.2,-2.6 2.2,0 4.1,0.5 5.8,1.4 1.6,0.9 2.9,2.2 3.8,3.7 0.9,1.6 1.6,3.2 2.1,5 0.4,1.8 0.7,3.6 0.7,5.5 0,1.8 -0.2,3.6 -0.7,5.3 -0.4,1.8 -1.1,3.4 -2.1,5 -0.9,1.6 -2.2,2.9 -3.9,3.8 -1.7,1 -3.6,1.5 -5.7,1.5 -2.1,0 -4.1,-0.4 -5.7,-1.4 m 15.4,6.7 c 2.8,-1.3 4.9,-3.1 6.5,-5.4 1.6,-2.3 2.7,-4.7 3.5,-7.3 0.8,-2.6 1.1,-5.4 1.1,-8.2 0,-2.9 -0.4,-5.6 -1.1,-8.2 -0.8,-2.6 -1.9,-5 -3.5,-7.3 -1.6,-2.3 -3.7,-4 -6.5,-5.4 -2.8,-1.3 -6,-2 -9.6,-2 -2.9,0 -5.6,0.4 -8,1.3 -2.4,0.9 -4.4,2.1 -5.9,3.6 -1.6,1.5 -2.9,3.2 -3.9,5.2 -1.1,2 -1.8,4 -2.3,6.2 -0.4,2.1 -0.7,4.3 -0.7,6.6 0,2.3 0.2,4.5 0.7,6.6 0.4,2.1 1.2,4.2 2.3,6.2 1.1,2 2.4,3.7 3.9,5.2 1.6,1.5 3.5,2.7 5.9,3.6 2.4,0.9 5,1.3 8,1.3 3.6,0 6.8,-0.7 9.6,-2 m -36.1,-8.4 -7.5,-2.7 c -2.4,3.8 -5.4,5.7 -9,5.7 -3.7,0 -6.5,-1.6 -8.5,-4.7 -2,-3.1 -2.9,-6.7 -2.9,-10.9 0,-1.9 0.2,-3.7 0.6,-5.4 0.4,-1.8 1,-3.4 1.8,-5 0.8,-1.6 2,-2.8 3.6,-3.8 1.6,-0.9 3.4,-1.4 5.4,-1.4 2.1,0 3.9,0.4 5.2,1.3 1.4,0.8 2.7,2.2 3.9,4 l 7.3,-3.1 c -1.1,-2.6 -3.1,-4.8 -5.9,-6.7 -2.8,-1.8 -6.3,-2.8 -10.5,-2.8 -3.5,0 -6.5,0.7 -9.2,2.1 -2.7,1.4 -4.7,3.3 -6.2,5.6 -1.5,2.3 -2.6,4.7 -3.3,7.3 -0.7,2.6 -1.1,5.2 -1.1,7.9 0,2.3 0.2,4.5 0.6,6.6 0.4,2.1 1.1,4.2 2.1,6.2 1,2 2.2,3.8 3.7,5.3 1.5,1.5 3.3,2.7 5.6,3.5 2.3,0.9 4.9,1.3 7.7,1.3 7.8,0.1 13.4,-3.4 16.6,-10.3"
         id="path4"
         inkscape:connector-curvature="0" /><path
         d="M 128.1,8.8 V 1.5 H 93.2 v 7.3 h 13.4 v 37 h 8.1 V 8.8 Z M 58.7,8.7 h 13 c 2.5,0 4.3,0.6 5.4,1.8 1.1,1.2 1.6,2.7 1.6,4.5 0,1.8 -0.6,3.3 -1.7,4.5 -1.1,1.2 -2.9,1.8 -5.3,1.8 h -13 z m 0,37.1 V 28.5 h 9.9 l 9.1,17.3 h 9.1 L 77.4,27.6 c 3.1,-0.9 5.6,-2.5 7.2,-4.9 1.7,-2.4 2.5,-5 2.5,-7.7 0,-3.9 -1.2,-7.1 -3.7,-9.7 C 80.9,2.8 77,1.5 71.6,1.5 h -21 V 45.8 Z M 14.8,29.3 20.1,16 c 0.7,-1.8 1.2,-3.3 1.6,-4.5 0.4,1.4 0.9,2.9 1.6,4.5 l 5.2,13.3 z M 43.2,45.8 25.6,1.5 h -8 L 0,45.8 h 8.6 l 3.7,-9.7 H 31 l 3.7,9.7 z"
         id="path6"
         inkscape:connector-curvature="0" /></g></g><rect
     style="fill:#000000;stroke:none;stroke-width:0.86771631;stroke-linecap:round;stroke-linejoin:round"
     id="rect817"
     width="1"
     height="1"
     x="28.25947"
     y="7.0000024" /><rect
     y="6.0000024"
     x="27.25947"
     height="1"
     width="1"
     id="rect819"
     style="fill:#000000;stroke:none;stroke-width:0.86771631;stroke-linecap:round;stroke-linejoin:round" /><rect
     style="fill:#000000;stroke:none;stroke-width:0.86771631;stroke-linecap:round;stroke-linejoin:round"
     id="rect821"
     width="1"
     height="1"
     x="26.25947"
     y="5.0000024" /><rect
     y="4.0000024"
     x="25.25947"
     height="1"
     width="1"
     id="rect825"
     style="fill:#000000;stroke:none;stroke-width:0.86771631;stroke-linecap:round;stroke-linejoin:round" /><rect
     style="fill:#000000;stroke:none;stroke-width:0.86771631;stroke-linecap:round;stroke-linejoin:round"
     id="rect827"
     width="1"
     height="1"
     x="24.25947"
     y="3.0000024" /><rect
     y="2.0000024"
     x="24.25947"
     height="1"
     width="1"
     id="rect829"
     style="fill:#000000;stroke:none;stroke-width:0.86771631;stroke-linecap:round;stroke-linejoin:round" /><rect
     style="fill:#000000;stroke:none;stroke-width:0.86771631;stroke-linecap:round;stroke-linejoin:round"
     id="rect831"
     width="1"
     height="1"
     x="24.25947"
     y="1.0000024" /><rect
     y="2.4226972e-06"
     x="25.25947"
     height="1"
     width="1"
     id="rect833"
     style="fill:#000000;stroke:none;stroke-width:0.86771631;stroke-linecap:round;stroke-linejoin:round" /><rect
     style="fill:#000000;stroke:none;stroke-width:0.86771631;stroke-linecap:round;stroke-linejoin:round"
     id="rect835"
     width="1"
     height="1"
     x="26.25947"
     y="2.4226972e-06" /><rect
     y="2.4226972e-06"
     x="27.25947"
     height="1"
     width="1"
     id="rect837"
     style="fill:#000000;stroke:none;stroke-width:0.86771631;stroke-linecap:round;stroke-linejoin:round" /><rect
     style="fill:#000000;stroke:none;stroke-width:0.86771631;stroke-linecap:round;stroke-linejoin:round"
     id="rect839"
     width="1"
     height="1"
     x="28.25947"
     y="1.0000024" /><rect
     y="2.4226972e-06"
     x="29.25947"
     height="1"
     width="1"
     id="rect841"
     style="fill:#000000;stroke:none;stroke-width:0.86771631;stroke-linecap:round;stroke-linejoin:round" /><rect
     style="fill:#000000;stroke:none;stroke-width:0.86771631;stroke-linecap:round;stroke-linejoin:round"
     id="rect843"
     width="1"
     height="1"
     x="30.25947"
     y="2.4226972e-06" /><rect
     y="2.4226972e-06"
     x="31.259468"
     height="1"
     width="1"
     id="rect845"
     style="fill:#000000;stroke:none;stroke-width:0.86771631;stroke-linecap:round;stroke-linejoin:round" /><rect
     style="fill:#000000;stroke:none;stroke-width:0.86771631;stroke-linecap:round;stroke-linejoin:round"
     id="rect847"
     width="1"
     height="1"
     x="32.259468"
     y="1.0000024" /><rect
     y="2.0000024"
     x="32.259468"
     height="1"
     width="1"
     id="rect849"
     style="fill:#000000;stroke:none;stroke-width:0.86771631;stroke-linecap:round;stroke-linejoin:round" /><rect
     style="fill:#000000;stroke:none;stroke-width:0.86771631;stroke-linecap:round;stroke-linejoin:round"
     id="rect851"
     width="1"
     height="1"
     x="32.259468"
     y="3.0000024" /><rect
     y="4.0000024"
     x="31.259468"
     height="1"
     width="1"
     id="rect853"
     style="fill:#000000;stroke:none;stroke-width:0.86771631;stroke-linecap:round;stroke-linejoin:round" /><rect
     style="fill:#000000;stroke:none;stroke-width:0.86771631;stroke-linecap:round;stroke-linejoin:round"
     id="rect855"
     width="1"
     height="1"
     x="30.25947"
     y="5.0000024" /><rect
     y="6.0000024"
     x="29.25947"
     height="1"
     width="1"
     id="rect857"
     style="fill:#000000;stroke:none;stroke-width:0.86771631;stroke-linecap:round;stroke-linejoin:round" /></svg>