<?xml version="1.0" standalone="no"?>
<!DOCTYPE svg PUBLIC "-//W3C//DTD SVG 20010904//EN"
 "http://www.w3.org/TR/2001/REC-SVG-20010904/DTD/svg10.dtd">
<svg version="1.0" xmlns="http://www.w3.org/2000/svg"
 width="16.000000pt" height="16.000000pt" viewBox="0 0 16.000000 16.000000"
 preserveAspectRatio="xMidYMid meet">
<metadata>
Created by potrace 1.11, written by Peter Selinger 2001-2013
</metadata>
<g transform="translate(0.000000,16.000000) scale(0.002286,-0.002286)"
fill="#000000" stroke="none">
<path d="M3337 6814 c-1 -1 -45 -4 -97 -8 -119 -7 -172 -14 -285 -33 -49 -8
-103 -17 -120 -20 -16 -2 -48 -9 -70 -15 -22 -5 -51 -12 -65 -15 -46 -8 -264
-72 -345 -102 -392 -143 -751 -354 -1040 -611 -367 -326 -641 -695 -842 -1135
-95 -208 -183 -473 -227 -687 -3 -13 -7 -33 -10 -44 -2 -12 -7 -37 -10 -55 -3
-19 -7 -43 -10 -54 -2 -11 -7 -49 -11 -85 -4 -36 -9 -74 -11 -85 -24 -123 -23
-607 1 -745 2 -14 6 -45 9 -70 3 -25 8 -56 11 -70 3 -14 10 -54 15 -88 13 -80
73 -315 104 -407 216 -643 586 -1175 1106 -1591 205 -165 516 -351 730 -438
67 -28 94 -39 133 -56 150 -66 558 -169 732 -186 33 -3 66 -7 73 -10 79 -25
625 -24 802 2 66 9 278 45 297 49 10 2 38 9 63 16 25 6 52 12 60 14 153 32
426 133 635 236 177 87 221 112 377 215 679 452 1166 1134 1378 1929 31 115
64 282 76 375 3 30 8 64 10 75 23 119 22 629 -1 754 -1 9 -6 41 -10 71 -30
238 -113 572 -181 727 -8 17 -14 35 -14 41 0 18 -92 219 -161 352 -70 133 -96
176 -192 320 -178 265 -402 507 -667 719 -301 241 -646 427 -1019 551 -90 30
-329 92 -401 105 -100 17 -305 45 -375 51 -75 6 -442 13 -448 8z m338 -858
c55 -4 116 -9 135 -11 19 -3 54 -7 77 -10 298 -38 673 -183 933 -362 362 -250
672 -626 837 -1018 14 -33 31 -73 38 -90 45 -106 119 -339 130 -414 3 -24 10
-53 14 -65 5 -11 12 -46 17 -76 4 -30 8 -57 9 -60 1 -3 5 -36 9 -75 5 -38 10
-83 12 -100 6 -46 6 -345 1 -385 -3 -19 -8 -57 -11 -85 -12 -98 -15 -111 -36
-210 -33 -152 -123 -436 -159 -501 -5 -11 -27 -55 -47 -99 -52 -111 -104 -202
-187 -327 l-72 -107 -282 282 -282 281 47 26 c104 57 112 63 198 143 255 237
365 713 259 1122 -23 91 -117 305 -148 338 -7 6 -25 30 -41 52 -45 61 -154
162 -226 210 -118 78 -264 138 -410 167 -72 14 -354 17 -435 5 -360 -57 -611
-248 -773 -590 -59 -122 -63 -134 -152 -377 -104 -286 -153 -388 -223 -465
-84 -93 -169 -133 -292 -140 -235 -12 -472 166 -513 386 -32 167 32 368 150
474 81 73 168 108 300 123 l63 7 0 250 c1 138 -1 255 -3 262 -7 23 -181 4
-309 -33 -329 -95 -567 -343 -654 -681 -29 -117 -34 -164 -33 -328 1 -126 6
-165 27 -247 82 -311 285 -542 588 -670 340 -142 802 -65 1039 175 84 85 161
196 216 312 l46 98 112 -111 c61 -62 405 -403 764 -760 358 -356 652 -650 652
-654 0 -9 -138 -119 -230 -184 -105 -73 -134 -90 -290 -166 -201 -98 -355
-148 -589 -193 -103 -20 -290 -36 -416 -37 -101 -1 -345 11 -355 17 -3 2 -30
6 -60 10 -30 3 -62 8 -70 10 -8 2 -31 7 -50 10 -19 3 -62 13 -95 22 -33 8 -70
17 -82 19 -13 2 -80 25 -149 49 -543 193 -992 596 -1268 1139 -107 208 -212
499 -240 661 -3 17 -12 66 -20 110 -17 96 -26 163 -32 230 -5 66 -5 320 0 365
2 19 7 62 11 95 9 83 51 293 76 379 11 39 26 91 34 116 23 82 113 298 170 409
318 621 842 1049 1480 1209 170 43 273 58 450 68 72 4 131 7 132 8 3 2 102 -2
208 -8z m690 -1890 c137 -15 265 -76 357 -171 67 -68 130 -196 143 -289 6 -41
7 -195 1 -221 -26 -124 -67 -207 -141 -280 -72 -72 -130 -108 -239 -146 l-81
-28 -100 99 c-411 407 -585 581 -585 586 0 16 80 178 112 226 93 139 225 220
368 227 30 2 56 4 58 6 2 2 15 1 30 0 15 -2 50 -6 77 -9z"/>
</g>
</svg>
